PathFileType	4	(X/Y/Z)	\\Move.snu.ac.kr\motion\Animal\091204_091205_Bird\091205_bird\Project 2\Capture day 2\Session 1\pigeon_025.trc
DataRate	CameraRate	NumFrames	NumMarkers	Units	OrigDataRate	OrigDataStartFrame	OrigNumFrames
240.0	240.0	17	14	mm	240.0	1	2738
Frame#	Time	14MarkersBird:Head			14MarkersBird:C_back			14MarkersBird:Spine			14MarkersBird:L-shoulder			14MarkersBird:L-elbow			14MarkersBird:L-wrist			14MarkersBird:L-hand			14MarkersBird:R-shoulder			14MarkersBird:R-elbow			14MarkersBird:R-Wrist			14MarkersBird:R-hand			14MarkersBird:C_Tail			14MarkersBird:L-Tale			14MarkersBird:R-Tale			
		X1	Y1	Z1	X2	Y2	Z2	X3	Y3	Z3	X4	Y4	Z4	X5	Y5	Z5	X6	Y6	Z6	X7	Y7	Z7	X8	Y8	Z8	X9	Y9	Z9	X10	Y10	Z10	X11	Y11	Z11	X12	Y12	Z12	X13	Y13	Z13	X14	Y14	Z14	

1933	8.050	384.92123	783.44885	1631.95447	406.85281	820.26801	1693.44214	435.69473	795.96399	1740.56042	373.60327	796.09479	1676.35474	375.96472	804.55237	1715.58472	344.82422	783.60034	1688.90381	347.61063	760.10028	1712.96399	415.38504	810.08728	1656.66589	445.76810	829.20361	1673.70508	441.90594	824.69183	1629.97156	476.24414	797.63708	1647.43018	452.83572	668.62238	1756.49182	394.20712	693.23358	1766.43628	496.06552	688.35089	1726.81445	
1934	8.054	383.19028	799.52362	1632.23718	406.36023	835.55713	1694.94690	434.25900	809.45319	1741.64905	372.30334	813.06195	1676.77954	374.56870	820.98169	1715.98352	341.16739	805.55328	1689.12622	340.89325	780.44934	1712.37231	413.57104	827.13971	1657.52100	443.50110	847.23724	1674.87036	440.22849	848.65851	1630.96289	476.41980	822.25159	1642.47449	446.76096	680.69080	1746.40002	386.53931	708.12231	1760.44543	496.15094	704.70319	1718.05420	
1935	8.058	381.36322	816.07642	1632.36060	406.09552	850.54437	1696.31592	432.91345	822.84503	1742.36963	371.50510	828.96936	1677.56958	373.33060	837.94244	1716.14575	337.83472	827.65253	1688.88794	333.65411	802.48846	1711.28918	411.91507	843.68567	1658.25073	440.51761	866.19562	1676.48792	437.51266	871.22186	1634.00098	477.59885	850.43494	1638.29626	440.50928	693.47711	1737.08704	380.30273	723.47864	1755.58618	493.32074	718.48254	1711.35913	
1936	8.063	379.61511	833.17407	1632.45300	405.86938	864.99310	1697.20886	432.02411	836.26654	1742.50159	370.63998	845.92572	1677.95020	372.48434	855.79712	1715.78918	336.40924	850.95972	1689.20667	327.06366	827.90686	1710.48035	410.69028	860.09381	1659.33826	436.17319	884.19666	1679.08948	433.49658	893.57727	1637.61682	475.13593	878.91071	1638.21729	434.78299	707.96594	1730.83301	375.76083	739.60736	1752.71716	492.94632	734.22131	1706.77368	
1937	8.067	377.89822	850.18573	1632.50574	405.63559	879.35608	1698.02979	431.09949	849.67780	1742.66943	369.90546	862.35126	1678.30359	371.82059	873.69244	1715.45386	334.97406	874.14771	1689.55322	321.32217	853.11969	1709.83594	409.32031	876.55481	1660.13354	432.03726	901.61780	1681.63794	429.53271	915.24457	1641.57446	472.55789	907.14844	1638.60754	429.30045	722.03680	1724.57800	371.35669	755.14630	1749.45923	491.64804	749.33038	1701.78284	
1938	8.071	376.20010	867.37067	1632.41223	405.37671	893.43140	1698.56848	430.25113	863.08899	1742.59473	369.24710	878.55951	1678.49548	371.65427	891.92426	1714.88953	334.45709	897.52942	1690.04736	317.10873	879.40558	1709.57959	408.01074	892.86902	1660.76904	427.51721	918.07739	1684.61011	425.05435	935.81885	1646.28015	468.35931	935.25177	1641.43591	424.44388	736.26483	1719.48755	367.82193	770.23505	1746.53906	489.50284	763.65247	1697.83411	
1939	8.075	374.47968	884.70563	1632.13965	405.22678	906.93250	1699.01978	429.38620	876.53656	1742.28845	368.56219	894.58417	1678.56104	372.14111	910.26526	1714.05615	335.00726	920.71313	1690.55139	314.96643	906.27692	1709.89197	406.73267	908.96808	1661.30566	422.66666	933.46869	1687.88599	420.17017	955.14001	1651.61780	462.51846	962.49768	1646.83423	420.51556	750.49109	1715.38672	365.02737	784.81970	1743.89294	486.65723	776.92700	1695.51196	
1940	8.079	372.73877	902.17096	1631.73181	404.71948	921.35834	1699.00171	428.43054	890.06372	1741.76526	367.82788	910.44305	1678.53308	373.37488	928.41858	1712.90564	336.72873	943.27423	1690.91309	315.18030	933.13849	1710.82251	405.42706	924.84442	1661.81580	417.51669	947.80566	1691.23865	414.97787	973.14087	1657.37244	455.10431	988.10095	1654.68726	417.77582	764.61615	1712.14478	362.93393	798.96619	1741.68481	483.79041	789.51007	1694.87170	
1941	8.083	371.02213	919.74719	1631.25610	404.00574	935.69464	1698.89209	427.33105	903.67841	1741.06262	367.03506	926.22455	1678.36084	374.70297	946.85675	1711.66174	339.59009	964.93042	1691.03406	317.68500	959.32349	1712.19824	404.05417	940.50500	1662.32837	412.05704	961.23016	1694.45764	409.57657	989.86469	1663.15601	446.25989	1011.39923	1664.47705	416.26889	778.55139	1709.68262	361.50287	812.66553	1740.00745	481.39011	802.06744	1695.11377	
1942	8.087	369.35590	937.39624	1630.76770	403.03619	949.86780	1698.69006	426.02811	917.36530	1740.28577	366.10419	942.08533	1677.98572	377.39301	963.89368	1709.96594	343.38782	985.54401	1690.89197	322.14185	984.31366	1713.65979	402.60696	955.94037	1662.84705	406.31235	974.07587	1697.47034	404.12949	1005.44275	1668.51062	436.26593	1032.07141	1675.24988	415.79114	792.27405	1707.97705	360.59702	825.92084	1738.73279	478.97589	814.67499	1695.98328	
1943	8.092	367.74396	955.05890	1630.29980	401.84122	963.88739	1698.39783	424.46536	931.06787	1739.53027	365.01862	957.90900	1677.47522	379.57001	980.39642	1708.31458	347.81155	1005.06604	1690.52588	328.11276	1007.96411	1714.82776	401.11273	971.14764	1663.33374	400.88840	986.23547	1700.17883	398.92648	1020.15979	1673.06458	425.57312	1050.17126	1685.77869	416.00418	805.82385	1707.09802	360.04620	838.76691	1737.64563	478.36423	828.56073	1695.39966	
1944	8.096	366.19028	972.67633	1629.86499	400.45108	977.76294	1698.01709	422.62326	944.69763	1738.83337	363.87692	973.45947	1677.03137	381.25647	996.20190	1706.68115	352.41095	1023.49652	1689.98901	335.18600	1030.37500	1715.40076	399.62222	986.10492	1663.73792	393.39047	998.85168	1703.04041	394.40683	1034.46069	1676.58081	414.84714	1066.03625	1694.89526	416.65417	819.19110	1707.14075	359.71591	851.27173	1736.60742	477.87845	842.60327	1695.42847	
1945	8.100	364.71417	990.16492	1629.44873	398.89615	991.50409	1697.55005	420.52133	958.20386	1738.20483	362.79810	988.63855	1676.71924	382.43927	1011.36646	1705.09070	356.49161	1040.78162	1689.42456	342.73251	1051.53516	1715.22949	398.17029	1000.80981	1663.97815	387.93353	1012.15045	1704.15918	391.08755	1048.87988	1679.00000	404.89563	1080.46143	1701.97363	417.68341	832.30060	1708.15002	359.55884	863.49677	1735.64600	477.60239	856.89294	1696.36804	
1946	8.104	363.34070	1007.44507	1629.01794	397.20667	1005.12042	1696.99866	418.22791	971.69519	1737.69983	361.77307	1003.51965	1676.40723	383.10532	1025.94641	1703.56775	359.20871	1056.90698	1689.11890	349.61206	1071.19849	1714.43530	396.81424	1015.28204	1663.96094	384.82050	1025.85901	1703.38513	389.39267	1063.76685	1680.48572	396.64404	1094.56238	1706.91211	419.15918	845.16315	1710.10181	359.60788	875.43774	1734.80457	477.50494	871.38379	1698.10486	
1947	8.108	362.07715	1024.46448	1628.55090	395.41296	1018.62146	1696.36487	415.87106	984.96643	1737.06738	360.67288	1018.15308	1676.01843	383.24146	1039.99817	1702.13745	359.83429	1071.92480	1689.49084	354.32886	1089.10803	1713.39966	395.64890	1029.54993	1663.61108	383.33200	1039.83838	1701.25745	389.49512	1079.07764	1681.31348	391.10782	1109.11255	1709.81653	421.13309	857.91699	1712.85315	359.92551	887.07501	1734.12732	477.55499	886.02979	1700.52539	
1948	8.113	360.92609	1041.19116	1628.06787	393.54541	1032.01685	1695.65063	413.62570	998.23584	1736.34607	359.41263	1032.50085	1675.58594	382.83453	1053.57813	1700.82458	358.34723	1085.96960	1690.80200	355.71106	1105.36230	1712.64795	394.72797	1043.59497	1662.94666	382.74857	1053.94971	1698.31519	391.11899	1094.37537	1681.72852	388.81516	1124.20105	1711.08411	423.57175	870.73108	1716.19763	360.50726	898.49255	1733.72461	477.72144	900.78485	1703.51611	
1949	8.117	359.89197	1057.59973	1627.62402	391.63425	1045.31604	1694.85815	411.53342	1011.47791	1735.50623	358.01578	1046.45044	1675.11719	381.87149	1066.74268	1699.65393	355.41946	1099.19104	1692.92688	353.56100	1120.36011	1712.59167	393.99792	1057.38220	1662.09216	382.35086	1068.05408	1695.09753	393.61490	1109.07666	1681.84973	389.53561	1139.20520	1711.39941	426.30627	883.77405	1720.10913	361.26038	909.82660	1733.68042	477.97318	915.60303	1706.96350	
